<?xml version="1.0" ?><svg enable-background="new 0 0 64 64" id="FO_00000068645308647629825500000001391242282340690576_" version="1.1" viewBox="0 0 64 64" xml:space="preserve" xmlns="http://www.w3.org/2000/svg" xmlns:xlink="http://www.w3.org/1999/xlink"><g><g><path d="M37,23H27c0,9-2,27-6,40h22C39,50,37,32,37,23z" fill="#D9AA71"/><path d="M59,15c-0.5-5.1-4.7-9-10-9c-1.4,0-2.7,0.3-3.9,0.8C43.5,3.4,40,1,36,1c-2.4,0-4.6,0.8-6.3,2.3    C28.6,1.9,26.9,1,25,1c-2.6,0-4.9,1.7-5.7,4.1C18.9,5,18.4,5,18,5c-4.5,0-8.3,3-9.6,7C4.3,12.3,1,15.8,1,20c0,4.4,3.6,8,8,8    c1.6,0,3-0.5,4.3-1.2c0.8,2.5,3,4.2,5.7,4.2c2.1,0,4-1.1,5.1-2.8c1.8,1.7,4.2,2.8,6.9,2.8c3.3,0,6.2-1.6,8-4.1    c1.2,0.7,2.5,1.1,4,1.1c2,0,3.8-0.7,5.2-1.9c1.4,2.3,3.9,3.9,6.8,3.9c4.4,0,8-3.6,8-8C63,19,61.4,16.4,59,15z" fill="#D9AA71"/><path d="M63,63c0-3.3-2.7-6-6-6c-2.1,0-4,1.1-5.1,2.8C51.1,59.3,50.1,59,49,59c-0.3,0-0.7,0-1,0.1    c-1.4-2.4-4-4.1-7-4.1c-2.6,0-4.9,1.3-6.4,3.2c-1-0.8-2.2-1.2-3.6-1.2c-1.8,0-3.5,0.8-4.6,2.1c-1.2-3-4.1-5.1-7.4-5.1    s-6.3,2.1-7.4,5.1C10.5,57.8,8.8,57,7,57c-3.3,0-6,2.7-6,6H63z" fill="#D9AA71"/></g><g><path d="M57,56c-2.1,0-4,0.9-5.4,2.5c-1-0.4-2-0.6-3.1-0.5c-1.5-2.3-4-3.8-6.8-4c-0.8-3.9-1.6-8.1-2.2-12.4    C43,41.3,46,40.5,46,39c0-0.7,0-2-7.1-2.7c-0.3-2.4-0.5-4.8-0.6-7c0.4-0.3,0.7-0.7,1.1-1.1c2.8,1.2,6.1,1,8.6-0.7    c1.7,2.2,4.3,3.5,7.1,3.5c5,0,9-4,9-9c0-3.1-1.6-5.9-4.1-7.6C59.1,9,54.5,5,49,5c-1.2,0-2.3,0.2-3.5,0.6C43.6,2.2,40,0,36,0    c-2.2,0-4.4,0.7-6.2,1.9C28.5,0.7,26.8,0,25,0c-2.7,0-5.2,1.6-6.3,4c-0.2,0-0.5,0-0.7,0c-4.6,0-8.7,2.8-10.3,7.1    C3.3,11.7,0,15.5,0,20c0,5,4,9,9,9c1.3,0,2.6-0.3,3.8-0.8c1.2,2.3,3.6,3.8,6.2,3.8c2,0,3.9-0.9,5.2-2.3c0.5,0.4,0.9,0.7,1.4,1    c-0.1,1.9-0.3,3.8-0.5,5.7C18,37,18,38.3,18,39c0,1.5,3,2.3,6.5,2.7c-0.6,4.1-1.3,8.2-2.1,12c-1-0.4-2.2-0.6-3.4-0.6    c-3.2,0-6.2,1.7-7.8,4.4C10,56.5,8.5,56,7,56c-3.9,0-7,3.1-7,7c0,0.6,0.4,1,1,1s1-0.4,1-1c0-2.8,2.2-5,5-5c1.5,0,2.8,0.6,3.8,1.7    c0.2,0.3,0.6,0.4,0.9,0.3c0.3-0.1,0.6-0.3,0.8-0.6c1.1-2.7,3.6-4.5,6.5-4.5s5.5,1.8,6.5,4.5c0.1,0.3,0.4,0.6,0.8,0.6    c0.3,0.1,0.7-0.1,0.9-0.3c1-1.1,2.3-1.7,3.8-1.7c1.1,0,2.1,0.3,3,1c0.2,0.2,0.5,0.2,0.7,0.2c0.3,0,0.5-0.2,0.7-0.4    C36.7,57,38.8,56,41,56c2.5,0,4.9,1.4,6.1,3.6c0.2,0.4,0.6,0.6,1,0.5C48.5,60,48.7,60,49,60c0.9,0,1.7,0.2,2.5,0.6    c0.5,0.3,1,0.1,1.3-0.3c0.9-1.4,2.5-2.3,4.2-2.3c2.8,0,5,2.2,5,5c0,0.6,0.4,1,1,1s1-0.4,1-1C64,59.1,60.9,56,57,56z M43.1,39    c-0.8,0.2-2.1,0.5-3.9,0.6c-0.1-0.4-0.1-0.9-0.2-1.3C41.1,38.5,42.4,38.8,43.1,39z M24.1,27.2c0,0-0.1,0-0.1,0    c-0.3,0-0.6,0.2-0.7,0.5C22.3,29.1,20.7,30,19,30c-2.2,0-4.1-1.4-4.8-3.5c-0.1-0.3-0.3-0.5-0.6-0.6c-0.3-0.1-0.6-0.1-0.9,0.1    C11.6,26.6,10.3,27,9,27c-3.9,0-7-3.1-7-7c0-3.7,2.9-6.7,6.5-7c0.4,0,0.8-0.3,0.9-0.7C10.6,8.5,14,6,18,6c0.4,0,0.7,0,1.2,0.1    c0.5,0.1,0.9-0.2,1.1-0.7C20.9,3.4,22.8,2,25,2c1.5,0,2.9,0.7,3.9,1.9c0.2,0.2,0.4,0.3,0.7,0.4c0.3,0,0.5-0.1,0.7-0.2    c1.6-1.3,3.6-2,5.7-2c3.5,0,6.7,2.1,8.2,5.2c0.2,0.5,0.8,0.7,1.3,0.5C46.6,7.2,47.8,7,49,7c4.7,0,8.5,3.5,9,8.1    c0,0.3,0.2,0.6,0.5,0.8c2.2,1.2,3.5,3.6,3.5,6.1c0,3.9-3.1,7-7,7c-2.5,0-4.7-1.3-6-3.4c-0.2-0.3-0.4-0.4-0.7-0.5    c-0.3,0-0.6,0-0.8,0.2c-2.2,1.8-5.5,2.1-8,0.7c-0.4-0.3-1-0.1-1.3,0.3C36.5,28.7,33.9,30,31,30c-2.3,0-4.5-0.9-6.2-2.5    C24.6,27.3,24.3,27.2,24.1,27.2z M31,32c1.9,0,3.7-0.5,5.3-1.4c0.2,3,0.5,6.1,0.9,9.2C35.8,39.9,34,40,32,40c-2,0-3.8-0.1-5.3-0.2    c0.4-2.8,0.7-5.6,0.9-8.4C28.7,31.8,29.8,32,31,32z M20.9,39c0.8-0.2,2.1-0.5,4-0.7c-0.1,0.4-0.1,0.9-0.2,1.3    C23,39.5,21.7,39.2,20.9,39z M34.4,56.9c-2.4-1.3-5.5-1.1-7.6,0.6c-0.7-1.1-1.5-2.1-2.6-2.8c0.9-4,1.7-8.4,2.3-12.8    C28.4,42,30.4,42,32,42c1.6,0,3.6,0,5.5-0.2c0.6,4.2,1.3,8.4,2.2,12.3C37.7,54.4,35.8,55.4,34.4,56.9z" fill="#333333"/><path d="M32,38c0.6,0,1-0.4,1-1v-2c0-0.6-0.4-1-1-1s-1,0.4-1,1v2C31,37.6,31.4,38,32,38z" fill="#333333"/><path d="M32,44c-0.6,0-1,0.4-1,1v6c0,0.6,0.4,1,1,1s1-0.4,1-1v-6C33,44.4,32.6,44,32,44z" fill="#333333"/></g></g></svg>