<?xml version="1.0" encoding="utf-8"?>
<!-- Generator: Adobe Illustrator 16.0.0, SVG Export Plug-In . SVG Version: 6.00 Build 0)  -->
<!DOCTYPE svg PUBLIC "-//W3C//DTD SVG 1.1//EN" "http://www.w3.org/Graphics/SVG/1.1/DTD/svg11.dtd">
<svg version="1.1" id="Слой_1" xmlns="http://www.w3.org/2000/svg" xmlns:xlink="http://www.w3.org/1999/xlink" x="0px" y="0px"
	 width="436px" height="301px" viewBox="0 0 436 301" enable-background="new 0 0 436 301" xml:space="preserve">
<title>1.2 Железнодорожный переезд без шлагбаума</title>
<path d="M28.844,268.383H85.16c4.978,15.395,19.31,25.82,35.486,25.82c20.599,0,37.295-16.697,37.295-37.295
	c0-0.769-0.022-1.531-0.069-2.295h17.354c-0.047,0.764-0.071,1.526-0.071,2.295c0,20.598,16.697,37.295,37.296,37.295
	c20.589,0,37.285-16.697,37.285-37.295c0-0.769-0.022-1.531-0.069-2.295h17.354c-0.047,0.764-0.07,1.526-0.07,2.295
	c0,20.598,16.695,37.295,37.295,37.295c20.596,0,37.295-16.697,37.295-37.295c0-0.769-0.025-1.531-0.072-2.295h49.99v-48.197H59.826
	v16.065H28.843L28.844,268.383z M89.09,256.909c0-17.433,14.129-31.56,31.557-31.56c17.431,0,31.559,14.131,31.559,31.56
	c0,17.43-14.129,31.557-31.559,31.557C103.218,288.466,89.09,274.337,89.09,256.909z M180.893,256.909
	c0-17.433,14.129-31.56,31.559-31.56c17.42,0,31.547,14.131,31.547,31.56c0,17.43-14.129,31.557-31.547,31.557
	C195.021,288.465,180.893,274.337,180.893,256.909z M272.688,256.909c0-17.433,14.129-31.56,31.559-31.56
	c17.428,0,31.557,14.131,31.557,31.56c0,17.43-14.129,31.557-31.557,31.557C286.814,288.465,272.688,274.337,272.688,256.909z"/>
<circle cx="120.646" cy="256.91" r="11.476"/>
<path d="M212.449,245.434c6.337,0,11.467,5.141,11.467,11.479s-5.13,11.476-11.467,11.476c-6.339,0-11.477-5.138-11.477-11.476
	S206.11,245.434,212.449,245.434z"/>
<circle cx="304.244" cy="256.91" r="11.476"/>
<path d="M285.883,103.139H120.646V56.09H86.221v47.049h-14.63c-12.636,11.924-19.796,28.529-19.796,45.9
	c0,17.373,7.16,33.979,19.796,45.898h214.292V103.139z"/>
<path d="M297.357,61.828v133.113h94.098V84.779h11.475V61.828h-11.475H297.357z M320.309,82.482h43.605v48.197h-43.605V82.482
	L320.309,82.482z"/>
<path d="M117.608,48.661c-45.683,9.722-35.841-37.072,7.417-25.28c32.597,8.886,53.071-13.483,94.547-9.776
	c12.947,1.157,1.296,52.653-25.043,48.224C168.062,57.378,143.686,39.434,117.608,48.661z"/>
</svg>
